<mxfile host="65bd71144e">
    <diagram id="TVqdjZFXBGVfyS-CdbGJ" name="Page-1">
        <mxGraphModel dx="835" dy="570" grid="1" gridSize="10" guides="1" tooltips="1" connect="1" arrows="1" fold="1" page="1" pageScale="1" pageWidth="827" pageHeight="1169" math="0" shadow="0">
            <root>
                <mxCell id="0"/>
                <mxCell id="1" parent="0"/>
                <mxCell id="2" value="http://ics2o.mths.ca" style="swimlane;whiteSpace=wrap;html=1;" vertex="1" parent="1">
                    <mxGeometry x="90" y="120" width="600" height="360" as="geometry"/>
                </mxCell>
                <mxCell id="5" value="Do you like dog?" style="text;html=1;strokeColor=none;fillColor=none;align=center;verticalAlign=middle;whiteSpace=wrap;rounded=0;" vertex="1" parent="2">
                    <mxGeometry x="20" y="80" width="110" height="30" as="geometry"/>
                </mxCell>
                <mxCell id="6" value="This code will generate more cute dog image every time when you refreash it!!" style="text;html=1;strokeColor=none;fillColor=none;align=center;verticalAlign=middle;whiteSpace=wrap;rounded=0;" vertex="1" parent="2">
                    <mxGeometry x="10" y="130" width="420" height="30" as="geometry"/>
                </mxCell>
                <mxCell id="7" value="" style="shape=image;verticalLabelPosition=bottom;labelBackgroundColor=default;verticalAlign=top;aspect=fixed;imageAspect=0;image=data:image/jpeg,/9j/4AAQSkZJRgABAQAAAQABAAD/2wCEAAkGBwgHBgkIBwgKCgkLDRYPDQwMDRsUFRAWIB0iIiAdHx8kKDQsJCYxJx8fLT0tMTU3Ojo6Iys/RD84QzQ5OjcBCgoKDQwNGg8PGjclHyU3Nzc3Nzc3Nzc3Nzc3Nzc3Nzc3Nzc3Nzc3Nzc3Nzc3Nzc3Nzc3Nzc3Nzc3Nzc3Nzc3N//AABEIAJ4A5AMBIgACEQEDEQH/xAAbAAACAwEBAQAAAAAAAAAAAAAEBQIDBgEAB//EADkQAAIBAwIEBAQFAwQCAwEAAAECAwAEERIhBTFBUQYTImFxgZGhFCMyQvBSscEH0eHxFWIzNEQk/8QAGQEAAwEBAQAAAAAAAAAAAAAAAQIDBAAF/8QAJBEAAgICAgIDAQEBAQAAAAAAAAECEQMhEjEEURMiQTIUYTP/2gAMAwEAAhEDEQA/ANyiQxx5VMP3oe4tL+RVe2X0g796YmyMly9uh5HY+1P7aIQ24jYDYdqjit3ZoytKqBeGurWSrIo1gbikPFdENwGUAE0/kUxSDGyk0t4jbRzyYyMj7Uc6TiQi9izWZQA5znpTThvB4p4dbj4ClOgQ3GM5ApzYcRESgEgKKzY8eK7YZNPo5xGx8nh8kS8yu1fNU4adcol9OXOx2r61HIl2Rq3WlfHOAQ3iF4TokA2Iq+fHKUaholI+YXvBLVIyyEBuYqi0skeIrqZuw7VpIuDuJZI7ljkHeo2/CPJvAR+jNYE3/LexOwKPgbCANIfrUOJ27wcPIUHFaa9TVGqx52oC6CviJl2POkXOL+2x2jC8ItplvYiuR6tzjpX0i8hWLhRk16mAzik5jtraaNFXDE42pxxCZIeHNq5EdafI45FbRfGl8bZlrBTcTvKTvnbfHyxR/C0kXjsS76QDScXvl3P5AU78q0Hh8m44pHI64ON8UMcZPIr6M0XY38Xr/wDxKAN6wF809qCxiyK+q8ftkmhQGkVzwRb2Py1xjvirZ6+SgT/owEVrBfMHyBLzHenlj4dvLyDCDKD9O36qa2ngaOO7WaSdgBvgVpuPcSj4DwGQ8PCfiivlwjGcNj9R+A3poYvbGUHLRjm8A8VhgEzaQBzQNkisfxqGW0l0prDdhzNfY/A/iY8d4ERekC/tm8qc4wHJGVcD3B+uan/4jhckzfibePzG3BK1b4o2nE6UKdHyq3mn/wDFxxCN3coFGR3oyXgnFbaFH0K6NuccxX0NvDsCufIK6BvuOVKLbjttxC6nsLZvPWAHMunCPg4IU9cV0seNrYeFqzNxRSMojuY2Uj9xrVeG7Rkf1tqHerpLSOUamAFXcCQpLKM5HSqY8Mce7GhrRbNwqJpZGmjVwd+hpFe+E+E8Q1aIBC5/cnpOflWitXaS9dWbbOKbLboi7hTmlxNNM0Sgkz5LN/pzfJIRBdqY+Y1rv9q9X1GeSNZMAkY969T8UJ8a9FVpdCPiLzE+lutG3XEoY2UmQb1mmkPkvnoudqRtcTXF2IgDjHM9KxxzuNoHlNxar0bm+4hG1vqXB+dZV+MD8UQX3PSoTzSW9uyyHlSm1WOUtIf1DehlyOdGKeRoczXLcxvQlzfzIgEYyT2qmO4CxsH77VGzZgwmeMPjcAGpNtM6MrNnw2V4+HKzZDAb5om14lH5RLtufflQUUmrhbPj9tZP8TLrOGOAxFbpTcUmVlLjQ84pcpJdZUjNcXSVBrONdE3GHY86axXGQOWBXm5JNTskp7C3boBVP4bzJgzchU/NU4NXRfmIdJ3p+fIfm2C3PB45riObH6Dmims1uojE4yKNtUby8vzqVmo8x6W3Rqw/+UhAvheGKRpFXOTkCj+D2RgvQSuAOVaARqy8q4I0j3xvTwbi7M6VHuILqixSlZnt/wBNNJZA+BVT26sN6MptzsErbA5bmV49R2FZDxdeOi24Jc6kfBxy/T/zWxlGr0Bdqxni6yVpVnluCNCGIQDbUTg5z7U8ZNy2W8aLlkFfgviLWnFvKVzieMo+e6nK/Pc19Cub3zFUMOW+oVgOBeHuIXPGhO7rbW8BHqK5JYHfA68hv719GNnZyIEaVQ55DVtmmnLfZpy+O5faJkvFvH7gWq8MhncC4BMxVsERDGQPdthS7wxNHbzhF0qgRvQMYA7Vb4h4Jc8P4jNdzyG4tLlCFK7GNwchfge/tQfALVlmeadMLImQ43Xc8hRT+mwvHwxP2bRpCUBU+k9aJ4Fq82UmhYbR5bYCM8qM4WrQM4ftTQybpmKF2BX13LbNJLCMtq2pHc+Mb1ZQoU6uWmncwJeTbbNBixtpnLFBrqeLPxTTNeeVSOQXV9dRLMJCNYzivUVFA8UYQDYV6qf6EZ/mkX3C/lS46LtSVZZLcgqmSxAzWkeDNxLEN87VbFwRXAaTp0rApUzR5MHJqhTcR+ZaqpQksMk0huBJb3IjRdIPUivo/wCBiSIAAHHtS7iHB0m9eBt7U8Zu9mWfjWrMLBI083lFBgDmKJE4gby+Zp7DwMozvGvKl8vBZJm879BVsEd96pyTJvFSofW8xPCyjc9PPFZGVZPPkGltOdq2VrBm1CnsKknDYySGQHPeqzydD/E3FGN4Zww3VwXOrnWhm4SY4iUztT+34fDCMoiqT2FWPAdJ1cqyzTk7CsSS2ZAW0yj9Jq2ygukuRkeg1oxbp1AqXlIKSNxJuCKgvooW3yJHx3oiSZVOgZoJSwkbBOSaqjTDWKQy83Su+K5q1jc1C0hV1Yu31oqK0Ro93A+dXUXJCKDaBdGDmvM9B8UulsyAJ4wM4wzjaqba7WdJJElVkTBL9D8KaOBvsKxsYRuCc9ay3iW0trzjFg90CYY1kyhbZm2x/c01u5sTxwxFyW/Tg8/pSTxZD5dxEDKVZE6DfUedCSUOjXgw7so4p4ntOCcMUyuutgWihU7kDYkY3oGHxAl1wsX0UTZUZOG1AZHU+1Z694PEl9MhKTW50tJNjUVwoGM9tuVajw1wvh9tw2aw84MpiJYSHGSelO8MZRTXZaOSSk/Rf4W8SW3ibg09lcoIrjSfyyT61/qXPanfhzhsv4OSG5k81IZdEbKANQABGexGcbdqylr4fMV+pglyFi1pLjcYOCPmMZr6LwFQtpHoXKuSzHrnrXThG+KJScnjdl8KRwnSmN9qEliaORj0PKjri3KsGX6VCQqIWD88UrhxRnUVaFFqvmTMjDIJ+lQvbJ4JQ6DbOKN4SquXcUxZFkhIIBPwqEIcospmjchdHASgJHSvUyit5NA2FepPj/4T+JC+yIfiTZPOnUriOPINZSSV4DKQcFRgGrI+KNq8uQ5GM1Jpt6KZ8qg0n6G7XrK+nGd675kjvz9NJjd6pcjlRZnA0iNsnrvXTxSrshHyYrsfWqLoII51XJYI5P8AT2oewu9jqOAO9GG7VlxGwJqsF9fsW5J7RD8OsaYUVBlCfHtUb6+gsLVrq8nWGFebsf7dzXzvjfjaS6ytlqhteRf97/LOwq8cUsj0CUmbjiHiHhvDQRcXS+Yv7E9R+1ZziH+otmoIt7clejSP/gCvmXFeJNdMQoGjPYZP1pLPcPqyGA35E4/4rZHxMa72TZ9QufH9w6/leRH7+WSfuf8AFKrjxlxCX/8Ae4zy04X+wr5811sy6t/c1Kzm1lS5wAer7fSrRxQj0hKNm/Gbx31SXEzk9nP+a4OKzgEmeRfbWaTwTZjzr1Y9qHuZVDZ0lm7Zp6j6CaAccmBBeaQp2yd/vW14TfPxFIorbQBp9W5O9fG3kkkcSFQcHYMOdfVf9Lrd1tJbibGT+k1PNqNoriW6JX8aRXjrEqyeXzZlPP5mjeBcQb/6UmkeY4KM5O+DywOdBMzycQudKDVnfVjGDRN7w4tZMI2dDjUpDYII6+1efPLJS7N6xx4VQ2vFCSWl0+xRiMDtud/pWZ8bTXFyn4i3h04B1FRnVnr3ptacT/GcJla6yJo8AkZ3ZeuOlZ+W+LXMkDN5eTldWMSDr8BQm72JHWj5xaXs6cQkt7xgIhmRVxkZ5/Onll4wtrOdhLY/iHbJ1O2AOwGP5moeK+BNBcJcQKQsoBwB3o0f6eu3GYY2Qi11gTKDknb1afbOa34pJx0Y5QldIZ2PH1upoZraOWKGZDH5LHcE4wPhuftX1DhazW8EaEklkyx/9utIvCHhODhUaagJHB1a2Ofhj5Vo4DJDKWnYlelZ5f25FlfDiXtI6sA4POq76LMLOvLG9XvcJKdgDvihb90EDeogkcqSbtM6K2BcJCkaSeZpstsVJYPkCk/C7aVlEiD0imdt5wYh+VLCSjj2NkVy0XmSQbI2B8K7Uyo6V6oPKJTMtPGzrKp/VSq5uPww3BLDbYVpvKVgSDz5mqGsoXwxALZpbSPP8mXyNNCKMvJCZnOB2zXuHzPcTbkqo5HvT6WwiI2UDbpVcVhDGVNByV7M6iy8uYIQWXI9qUcX8SxcHcGNGeRxkAkhB8SP7U9lWFbV1kJKAZY9h1rLcT4lY8WspDtHaQZHmHGdt9IB5n/etGFJu30bcONyejJcc49fcfvQZ/Ug3SNFOmP4DvQdzbXhTL7t/TpBC/MU9tY7aJVkWMokm4BGo49zXLr8TezGCOMRWar+o5Gd999s8h7VqlnrUUbY+P7ZkbiyIRSQW1jquMHtSa7iW3ZhHrLE4UZ2NfTX4ZG9jpyWCddI6kfz5Vkr7hJEh1hwCdK4BwaeOdMnPC4mUljlkOkxnWP/AFxRNnbSoy5U6c742pk/CZIP0+oZ32yV+PWmEIiSONNGmcfuzpI+VU+RElCxaVb9AcLg/pAOf71TJnGBjHuOdF39pcgiSL8yMfsUa8fLnQIWZwVaNVfG+AdR+FFTRzidSROuBg74HKvsPg9kXhMaRYRdGCwr47HZSmVcjAzjI6H419K8LTSrZKhWMYbSNTHb4DrUs0kx8SqxkYFHFSVO37tW4+NPTHrhAACjGxz/AIxtSiRkW5DSMqf+x/waOF/q2bT5fQ55fSvPkrN6fQjWccO4pLkao5hhts4PyO3WguN2EcE8c6EZVwrHBwM4JH87Ub4htorhDMvkxsp2fAz9fp9aSm/d+H/hp0LSphScb4JzkD3wd6aO0Sl/VjPjMTXFmNA9MEYK9Mczn+1P+EcSg4tY2t9AcSOAWTGSGxuKzlvIbixMQU6WHfOkgb/TYfKtP4A4M3DeHo90QjMMhMbiqQzfGTUuFtmj9SounAON8V0etdxRjQRsuVIAPIUM8TRZ2yKd5UT5K7BlAOtV296jLbIlq5c6m6VbLbvrBRhuKEeCcamkfIHIVLJJVodSV9jPgIC2WD3o54kY5XalvC8/hSM43oiO4GNJbcUE1xpk5P7WWNGQedermNW+o/Ku0nCA3IzuoqBoJ3O4qRc6fT06V3SpY422HKvBST+rOKx2zzKJRyMT6gAPerB6pAMgVWqamxmp4EZ1DfFdb/ThP4xuWsODTaWU+cwiAJx+rn9gaT2dn+P4Fa2ljAFhZPzZD1Gcncci3M9htVX+oJe/4pwXhUWS0rySsP6QNKgn6t961h8rgvBbfhttb+Y6RhdQbTueZ75zXpYoJYrX6bPGdIzgtSoe3ZsQkEFeS579yegHIClN090s6rI/5ZAUaVx09/lWglETlSwBIG2+aS8ck0XESSD0seYPL/nap3+HpL2NOGw67QE7axyJxnNXcT4Qk/DZlIV8jYsM7iquFSrjyQqkH9oPTuP8joaZcVuDZWDjQWcpge1CEW3oE50jD3vhzCs9rPoLDdSucg9s/P5Vk5ob22meKZS5jIOvG5X4bV9EWO9kiEpQFf6euP4aXcUsDcp6lKTDlqGCR2/natMZNakY3T6EMIBg/NeOMDZi2Tj6VZbWImcJHKzIdgQm4HWj7bgzxIEnJIRdmA6H/v70b/4+UBWhxHp5YUYA9/8AmukwoEtuHcnhDFlyACgAHvv0o2xd4X8gMAGOFcjfA9+g9/sKmjPAxV5twfUSowfj1+9RcxpOj5DtqBOcDPypeQboYYM9yEchYwN8Dc9j7UVAWBZBpZQNhr1H+e1DExnVNlnLtgsD1oAXAMxVXKHnz3/6rPN7NWNaGzTJJOyNkAjcjnjrvQVtDaLxd1uwsQeJSjFsKu52+OMVK2mWV0TUutzzKekn37VXx21jaSNJCIy/6STkqR7dftXQTFyNUaDgPCoHZX/b5jn5atvtitHdNh8oRpGw2pF4Vt2t4pdQAUKcYBXVnlgEnHWm7jCLj6V2V0qR5vkS/CeuRdPr2qMs7h93ypqt5ACMdajLH5qaRtk86zSdL6kLZb5pdgquc159THGeVUwoynTq5VaSxBPbtTRutnWzrvJFurYFR3Ka85oWSXWDuTvg+xqMFwwJR19Pek5q6ByZcbiUHCtt8a9Q/mqSdWM16k5ncmRkZiQinGnB+O9ejd09TciM/Oq1kVCy7j9pPPFVmZgAzBvUMAkc8HpSNVsSwwaiQVbdhvUHmYxheYA+tUPMsbg6tyowO2aT+J+NR8P4LK0BxNOvlwd1Y9fkMn44popzlw9hW3Qkg4ul147NyrOY4E/Dxsvx3+O9by6KTRiZWkbI21DGK+V+F7V3mYgEOAcH5bVvOHXMkcbi5IVMYBLk6j7A8q9mUVBKJ6GONJUA8QmSKbYnmc5Gc/KhLhVunj55XGkjbNd4leJcSnTECAcHSd9+1HWNk4jMjqFLDZAeVZH2b10c4FEDcorufS2fenMEsNxxaaIkSRo2kg9O9LI4xw1DM5y7HCKPegraOeOZZLSRvMkffO+avj0rMmeV9G4fhVsy/l7Z99hQN3wSG7hKOwzjFFJGUAE0jNlfVlsAGuiUq5VhpOQuKGXyYmSWX0Kbbw/LEArTLMitqTXzB7Zoa64VewM2UEyMdQKHGDyxg1oPOA1ZPpJzUTKxXUAW3zzqCzWJ80jGScKuTEpkjOo5Lb5KmkkkEusCUaQebnNfQppXOGA55JA7CqnS1kRUkiBJXfoKH+hXTGWf2JgLK54f+GsmIWMaQ2dOe9Za4t5A7xCRnY7ZG/27VoJOEDh8tz+HlYJrLop3wDiqOAwyXnGoVcgjVg4FK27s9nG04WC29wPDto9xfuHlY4WI82z9wKq4XFecdu3uvX6QdUrDSqr7D/FXtwp+O8Xm4jcofKO0adkHKt1w+0gtLOG2VApYZOP6ugp22kY88+EbOWyiG0t4oAQgXfI3J6mjIxt6jUApBMJYAIMAjv71T+I1AKgJYgj51L5K3I8tu3bCpAhGskDAoNp1caVJyBVc8zahFsQNmrpiUg45hdqjknydRBZfDdoiajqJ965JcayxQ6QQCPhVWEjLM24I5d66pVY5AV9QGVx27Uyc0ts6z0RTLYHqB3968wBzkYyeVVGTSynYucYxRB0gDI1HqfhQik+zrOxKAnIV6hJpZVfAKgYzXqFr0CygKJMkPjLAMOxzuftUpokknZldzGB6mLHCnlsOlCxH8xHjfATfSOuxA+5FECdHYnOE9OPekj9ogJtbxlVQyYKoCXO21fN+L3I4zxLQufJhJjAHTfBb5n7VruPX8j2Bt7XL3EwbPsBz++fkKznCrOG0T8TLIqnTlk7f816XhwjFOcuzRhimxxwWwSxs/OlwrKpznfPPekPEbm/v7gGFWSEHoTt2rSFmvo3mZNNou6Rnmx5716a3a6crAoWNhqJxpCDuaOTJydnqKMYR5MRWki21zExGXbYZ5k+1PLnxBDw+FWnJ89gNEXNmP+BSnjltDwqLyraQyXYAaeYnaMEgAD3JNAcK4RLez62DMx2y1HFHl9mTnlfHRoraSbibC6uCFyuQo5LT3hNtoZZ2UgD9II5ZPOhOH2kdvoR2GM5ZR7Y3plFea/yw2GwTjbbFZ/I8pLUDBkyLpBsjCSLGBq/ax6/CoBWB1MwY4PLpQsk3obf/AOM4BNRSdHX9yNnUd+QHWsDlKT2QsNWF2BOpdWnLDNEDT5aAH1acsKWQtIZdGR6tjvsB3+9XNJ5T5c4xnI+XKqY6oFhTqNROwwDue3aunQQ3pVjgdOVDLL5sJ3AXQcEDc7/75qaDCKMltIKnB7fz70ya5BFnFY2SchXB8xMgAdRtiq/DFoE4sJGXD9N85oviaLLDFNg5R/1HsRVnBEEV0mMDetEd0z2vGbeEr4NbeVZwR43OBv8ACmcskTr+WCcHkOWO9RhUI6qNgmrPy/6quGNN412A3HbFdnb1FGLypdI8so9RjX8wLgZ2+dBWSzxmUylSxbVlT8KJ/Jh0NC+oawrZPWh47ptQVgRkYwoznA5ms3bqRgZd5jFMYIG5IquJ2811JAA3GT0617WXlIQak0+sDYjlQ73nlyh1A0DfJ5nof7Y+NI3Tv8OsLhkikhLk5fBOPkc4rtuC7uX2MfRutL0u0jjIIwxG2B1xRFzdgxSAt62wu2+2+cd+X3qkaa2dYUFTSzpvkalP02qjzzKViB5Ak+1ct59SsGxr16eX85Yq1VWUqzDQDn577VRNNaOPOQ2k6x+kdeVeqpJPL1L5LOdROreuVP5IHCW2STzJEZtUZOVYjG2AcfKvXMk6KCNSBhgAjBJzkfz3q/UrspYepM4OcdOlWvhcFsvzCnHfr3+dJzVWgUBXNrmEvGGaR4wAmMEbbD2zS+4sAs8cTAaFfUwCg75LDPwyD8h2p9JOJFQOSy7k42PaoOiPAQ66UOAN+Yxg03+ldIaMnHaKbaB3jCPpVeSoDnGP4foalM0yWZjtY8udwWwM558+fwomFIwckaS2cEH4Y/z9KsSNEGhm0tjIA26Y+tK83Jr0VeaUlT6MpacL8+W+jnk1K0yShj7Bj/nGK0fD4YraDVECCToUk4x7/wBhU2i15i0FUVSSwA3GD/MVyBNSE51baUGOVU/1Sa4heZtbOqQraicMWyQp59vlVwjRFMcew07EHn3+u1RCF0LPjT0Cjl71Iq8rMGwuMAn26gVnqKdpEaJ6FjUoT6ASRnOM4x/BXmRSp2xGYyoPRcjr1+telCqkTKXOQQfY7b1EekFZCuMEBivL40/ONo6iVsQdRbYOA5HZqnIwAIbUWwCF543qqaMoxwcB8Y0/09atZC0KFlyG2HdaCk6a9HFXkvBC3l3OSfUSw2HXl27/ADq1AEYZY6eo374qcJYKrvtvg78wKHkUykrCc7DAHJsj7UstJMJc8zS8Ou3KgtHpfCjOeY/nwqu0nEUqSPjDEHO/auxakMsQ9TN6WJ6/GoKrLbo7KGdSC2Rywdt/5yrRHKlFL9RtweRwhTGM06iWfG5BYY75BNBTXUoWOOMkl9vocYqSgeapxrCjfP3+dTjQodUmAwPy355/vQlOUnaM+bJzYCrOylCpyzk7nPxP1qtiW059SSb7nHXufY0eyIJRhF9IG/X+f71XDFKXAcaU5YIGD2P1xUWreiFA8iES5D6AynUxGxHT41CeNrmHK5BwVf49T7ZNMspEGIHPYuBy+Xaoa8w406gebe9O0jqQvFm2mRFPrcNguc4JBA/xVqwRI0RkLE7lj06b1dPMgeJgdZGCB32oOa4V5tEuVJHJfjk/z2pZa6BpBACHToHq3Yjnud8VZC2QURsFgdIxvk/3oWCVEjEZALtlmHTJ2xn7URdaEy6acjZsHOT/AAUYt9r8CTKSyepQxXphScV2qLfiEMaESzMCTkaQOWB3Neqf1OAcArrRCTkjB5AVbl/KCagRy9XPHT/NTSMaI2bvgY96INuvnq3TY/SuUeWzgYQt6XI1KW23xvjtVdukjNiYlldTlDR8lsNbNCwGls5Yb1XqDyMCN1HPkaMcaUujiEkSuBJ6wR6VGM471bbNodgoV2KcyO4qwZeMEMV0npU7VMSYY5/p25UHgl8lroJWINLKsiKdZIbQ3I4qbxDRgAalbIZQB/On0qUK6Q0nMY3Hc1G6dgok2OrbHaquFHELZxrePJDsMgdK66xqrlFwpOSD3oY4jmByTp3qt5WaJwD+4ZqN/gLDRJEI4iDkEasHvUbjUjHYFf1ChJBquRGuAANqnK/lMI1GrO51dadR5KmCy2AhpgXf9IwB0FFiYKWRB5nf2oGGRpp/IkCnKkagu+alfecgjjiYBNye5xT/AB8ejkEKxSZTKpUbnuKjI2Az2oVpB+kLtt71VBet5aGYamzpBFFJMI/VGmnnmjKCpWEIhgkaNVfy888jma66KqsmrYbnaqbm90KGVTkLzzQ8k7PHpHVQSTXS4LSDZOMozSKQ6ENq58s1KQOszowGA22uuW8oleMiNV1rmpXT+W+lhrzzJ2pFiuKdnWRaIowUOGYthsHpXmAaRxnAU4ABzn51CKYh1QgZOWJrsJV1DAYBbOKbjWogsixbzdJJK6ckmqmhlQEI3lo49TfGiJG1Rjb0Z3BquV8YBHUY/wCfrU2ndoIIEDxysgbDMMBj0Peqxw5zcxnzWKgZV+xJ3+X+1M9IiVJOb8lPv3qbPpHm761GDj40dtUgUK5LOSJ40jZH0Lsqgepj3JyfvU5o2VA7ITIw3UjpnJ2HMii5Y2iOrILn1e2K6jejQwDNg5J7k10MqbakqOoXyI2EyQmVzgiu0085ABriUtjfYGvU/GHs6j//2Q==;" vertex="1" parent="2">
                    <mxGeometry x="350" y="180" width="228" height="158" as="geometry"/>
                </mxCell>
                <mxCell id="8" value="" style="shape=image;verticalLabelPosition=bottom;labelBackgroundColor=default;verticalAlign=top;aspect=fixed;imageAspect=0;image=data:image/jpeg,/9j/4AAQSkZJRgABAQAAAQABAAD/2wCEAAkGBxMTEhUSExIVFRUVFxUXFhcYFRcYFRUVFRYWFhUVFRYYHSggGBolGxUVITEhJSkrLi4uFx8zODMsNygtLisBCgoKDg0OGhAQGy0lHyYtLS0tLS0tLS0tLS0tLy0tLS0tLS0tLS0tLS0tNS0tKy0tLS0tLS0tLS0tLS0tLS0tLf/AABEIAKgBLAMBIgACEQEDEQH/xAAcAAACAgMBAQAAAAAAAAAAAAAEBQMGAAECBwj/xAA6EAABAwIEBAQDBwMEAwEAAAABAAIRAyEEEjFBBSJRYQYTcYEykaEUQrHB0eHwUnLxByNiohUzghb/xAAaAQADAQEBAQAAAAAAAAAAAAAAAQIDBAUG/8QAKREAAgICAgICAgICAwEAAAAAAAECEQMhEjFBUQQTFGEi8DKBI0LhBf/aAAwDAQACEQMRAD8AuJoN6KN2CadkUV00WTEBHh7I0QtTg7HbBNiVw0JUhlfreFqbtgmfBeGmh8OmkJiw3U5NkpQjJU0LoT8awhqOb2MlRYzCnIBGic5lFiNCsJfHgy1JlGx/CHVjl2U2G8FtaNFY8HZybh0q4Y0kNsqLPB7I+FZ/+SZ/SroTZDOWvFEWVqh4Ypj7oXeL4MxrbAKwBDY1vKhrQ0KeDcNbOiduwbBsh+HBMYshdA+yGlRYNlTfEPEw6uWZnMbLmMDTGYtHN7zMf2q1cWxzKFJ1R5gNB9zsB3XkfHa7q1XMy2WHSNJN5HT9ipnfSKj7LTwnxBUYQAGuMwQ71OhH6K0U/EU2fTDD/eCPUGPVeZM4gAA99P8A3SNCOU9HT6jp1Q+OfXqgnNDQJhthbqdT9FF8fJVX4PW8FxmlVcWtcJG36drow1yCvFfBuILcW05zlbLn3JAABLp7AfivVafGaToIJg75T+GqtS1shr0PH1JCEzlS06rXN5XA+hQ51VCCmOslj3cyYjRKKlTmUyKj0M8CZRNXVK8BWOaEzrOTJF+JN1EQSu6sucAmNPCw1Sy0KmG6x71Ni2wUG5AjoPunWFxUBV5z04w4lqAG1HisiEFjnk3QNFsFMXxkSrQ72DYN94TVrrJNQFyi/OSXQ5dkT9ltpso6pWmvW5iblbBXErJSYzBUuiGPlAON0VQKEB043Wniy5qG6zNZAAVAc6ZtSrDnn901zJRKkSvdZCl6KcLICbpkhFJcY1nKumOhd4xwyFJjQDgBdHONkDw910c82TXQPsrniPBecWnPBYHZWxIzG0uG6W/+Jo0KlLO0EOy5xoG5gJA7AumD0QfGMY8YpzgYZaQbEFv7pVx/jYqMqMDTnzNc1/SIBB7ELmjycmdH8FFFi8VYfDU2NL3CWUyIF3OIdy6bnMF53xHjJeMjWFoOnUrsVnF5LjMkG99AVuvh6bhmnLP4jaFpwvsyc/RJ4WpnNUaBHJcbkZgSCe8AFWBnFC0hpGWTM3MDYCZhVWhiTSdnZfUEf1NcP8H2W8Px+TD2gH6HaBZVJIUZNFt+2h7viymIMG8TpbVMqPFK9AZjmq0xrPxADUjqqsalQUfMoinG5DZLZ/mvdJMHxN5qZnvdOhM7E3HpdYpr/qaN+z3TAY6nWpZ6bg4R8raHuk7xzH1KqXhHixw9RzD8DjJjY6T6SrlX1kbrTldEpdhXCILintfDyFWMDUIfKs7MUCFRIsLMjwU/wrQ8KvY6pcJpw2vCllI1xbAwJVZqmLK48QxALVVcS0TKABAE+oEZPZIJ2TZr4b7KkSzKRuiKruVLcNiLps0S1S+il2D4Z90QWodlPmRMJQehzWwWq5chyFOIBC4bXkrZmIZn1WGooHC0qAVLoYBDnXReHKWFyMpvQBNVN1HmXIqLTigCLDfF7pqaRSXDVRnVrwYBhJOimhdUkBAZrq1YnBjKVVcZyuhCYUS5pW6vwlBsriUVVqjKUWALgnw5Qcc4g5jeXVCMxcOUHiBmeg54sW3B1B/RKLCRVK2MqVdpG43d6reE4G+s4AQAY/YEI/w5VpBjqlZ7G3gTAFrylnGONOa8Gk6kQ85RUZEGL315h+SbpKoi72znj3ADhmSTOgn3P0gKrtxESCJn6bK5cQ455uFLKpDnQCTF/i+QPp3VZwHCn1TAGtxCzi3WyppXoiFQkG1v5p9EJiqEmY0H80Vpr+D6zGz+YsleLwz2jL9SI+mspxkmKUWuwv8A0+xcVH4Z7czKggdWnt/lLMXhmjFVabCC2TcdbXHuVFQL21W5Xhp+QHrv8k8dwYNFMNf5lV75qP2AMkADWyhxqVlxdqgKjiKlOoS+zRY9bxBO69P4RW82ix3aPkqxxllBuHeAWvfDZE8xfIuT67BOfCoc2gwOm942A2hZxlyNK4uhxRpcyaU2KLDUpumFGnJW1mQr4ky0qPB4+LJpxHDSEoGBM6JDGdWrmakteQU6wVO11BjcJJQMr1V102oSWrKnCJTHCYSGwU0yWhRQpQUx82AocRQIKicUn0Ndh+CfKKe66W8NfdF1RdKPQ59lKoYp8XCKpViDMI44ALYwa5V8xGPNGOxtkIzGX0RjsCCuP/HBU/mIOSIK2L0UzcdZYcAFsYFT+d+ieQP9uM6Lo41xU32BdDB9kvzX6Bz/AEKDWfnkKy8H4oQRmQLcGOi27DQl+Y/Q/sLhU4u3L3VR4piSXErQY7qtPoyj839B9iFpqOJU7qzssIpuE7Lf2UpP5j9F81Qkp0nF1zHcqy0+F58M5hdBduMpt32PqoqeGANx8k5xxYzCue3pftMA6BbYc7nYRlyls8w4l4dpMYGmHOfnaCZAadWenr3VfxnCjTbFSC5z2EBuUuLGtcMxy23AneNbK1V8b5xAbpJnUWE2IgfL1RdLhbXSQ27oOggRIHt+vdd0FasUqTKMzBOy3F+pkwJ0HpdFUOK5OVvLlBBPQgctwrVjsI3KAbAXsZuRB97fmqrj+GEOgfC+3eRt2HdKUNAmd8A4tVdUc3zXObvckT2Avp6o/wAR8Idaszma7cXgnYSJ+SrjMNUpZTTzsLdYJgHM6LCzpGXUXvEbWfh3ifzaVSjXaA7KJbY8w1Nzvb5H1UWkPb7KpVaegkH+r8E9wTyGWiYhs7OOpN0pxjocbT1ix973tCJwddrgZIAHsfmdEsm0misbpjXD0Zq0mvDSTexgEdXT/Cr7WbpFoAXn/hmg59cTPuDEBenfZQAFwZsrx0kOWT0RUK8Jrga4nVLDSAWAdCud/MmZqbLO7KRdC1ciTGu/TMVoZidUfmTG8i9DZuUKKrUagXsdGpXIplH5WQHkGX2psahDPx42UIohdjDhH5eQayWRVq2ZDOpEo80oU9BkqX8vIxchVh6RaUc1x6FN6NAdAiMg6JrLk9hbK75a0aaOexQVGrmc2jPiD+WuTTRDQTst5CjmGwGDK6RT2HYIfyXSj7KDZ2tBi7NEgKMkqvsFs6yLmoFjVzXlL7QZG+oAozVC5OGcbrVXBOOifJEts6GKAUjcSCoTgjuo/szgm5UGwp1Rc8XrEYWq0TLmw20y60AQVtrDbZVXx3xZ45KbnS2ANLuNydtiB812/Ajym2UrsXUHU25jnk0zzmLF24ad094TxZjmS2ztT6dYF4/RJ+G8ENbD5i7mBgtiBmsHu+c2UNTDDDlwOhBDXHf5L2/Guh2MeI8QpudFN0i+s9Br9FV6uM5w0Hc21/b9VK5gIGVkgXLs8SYuI3KQ1nw/fXTf/KznJoa2WLGZnEHMWt0IEAC8SOn7IZ/DBUdmpTLbaTO501XeGrS2HHYwdb3ABH81Vh8LUGF9jmDRJsAPbouPJkrZ0QheikVsJVzFuUz9P2Wq2FrMsWnvY/ONF6fUwLjUcSxppjcfF+6qHEi01TMNH3XHMI6SWO09RsjFmc2LJjUR94CwOVuewLtr6fMq6uYqp4U4q3/1uIJ2PbsbyrgWyJXnfKUubswtAtRija0qaou2uAXKKyNrVOwhRueFwKwQ6Q00TEytZoUArLWaVPJDtEtSr0WU6pXNOjIupKTOyfYVYQ16JoVAFAGLIVppBQf9pauxi2pTkOykGEej7H4DZwMUIuuaVaUBUYJRFJ1tFhyFsLD7LnzrKKl6rmo26brwM6biD0U3mCEK9hWeX3Qk49icjutVjdRNqqKrRndTNoAiEfW30HI0+qEVhajSLpdiKOX7y4p1C0JwXF7J5DGvXA0UVHEDdBveSdFzVqqJS8hYZVrqbDjNtZK2PEd1IyoQtsbSalJaC9DHEkDafoJ2nr6fgvOPElGoatSqGl1MOBLtmuAykaiRpJ0Bsr48uc0hpOaCGnWCdLbpbxGq2nRa0y8gRoXF5BGw1aOnclehhyvlzitdGabWjyl/E303Etc5suLonl6iDa2tlDiOL1KplxNrC4j1VpHCXOpPe+myoJBeRlDhnnmaQOVojQGNPeu4/g1SmXZQ1zG3EOYXZbCSAZnfRdUPkwk3G6Oh6IuGh9NpOY6nUjfp39F2KTXHues/S8/zZCuxbjykEes/IyiMJh6lUhjGEzvByj3K6ZyVCinYVw4OcTaBcWDr9tYVmwOObTiWvHsE08O+GvLZmqET9B77rMRisOwkVaYLRcO+JveI0PZcL/5XS6On/BX5GeC4t5jYayoNOYiZ6tgEme0FJfENak1jg0hh38toAM35mm3uNdUl4l46ZEYc2FiA5wBBsJYZOXu0+oKAwWFr4xwe+2Uu5/vNbrDjEfT6yuuEFFGEpOWwDhzqnnA0Sc3YQdde47q/4DxLUYMtSHEWMT733SLHvZQpllN2Zz9XcwAEmzSJn6e90Nw5waJJ13WrxQyKpIyZeMH4hpOseU901GJa4arzxzA++iExXFquH0JI2vZcWb/5sHuDoKPTKoWvLheY0PF2IJDiRHT0Vq8P+NWu/wDcIdMC1oXDk+Dkir7DiWfyHdIRmDojdcvxoqNBasA3K43FRlQBdUgBbpVWoYslSNZFk93o02MWZStua0BLn1MtpUdauTYK268bCxth8nZEfa2C1lWBVcN1F5hKlZJJaQczdKlJkoltZoBCnDR0hA47DEiW/Nc/NxIcGDuJsAUZTDok7IduBfYpvhcDym6uNvotQ8i4OM3XbqvZH08D1XDsM246pVLyyuIJ5AcO6lp4NxEItuEDYjZFMaSR0WsZUTwsU1uHtsHarKvC9wU5xFMGLStYej9E21YfUJvsJhCnhzjeLK0ktiShTiREAKJqPlh9RWsRhDMQtUKZmCE+gTLgsyAkEDRZwdieOmLKFB0yJESosTRa0XAsIzZQMoO06p5iQAIGqW8ReBTJOWY30K7vjz4z4iquiqcP53hjX8gc41MshpyXDfTKBb/lvCK4pgqLmB7WCmW5edgi5cLOIFwZm6VYGo11Qgup0pBny3A8riJMxpMD3KK8Y0XvoBrX6ODjBMOAFoAOl10y+PxnwXTGsbbso2EwrWuIyNmd/oLaW7bK0UOLtp0yXAcomwgD+FVZwytLgczhIOUQ1p0hp3Pe59Fwyu7y6gIgAbk3c74ZPoCSPQLqnj5PZqpUNuI+LahZmIytAOZoNySLBwP5R+aqlao+qJa8gERkmSDByt+ZHcW6rnDPe9rqbQJzl7dBLWgkwTqZM6pn4e4Dintg04aXZjULuX4ebNOtvqPdaxiorRDbkzrwjwJr3HMbwBygEi4kSbB22/dP/ENWlhG+WHU2zfLLjJE6hsmAesX1WjifsdIN81ggGMoHmGdLbFUzFYttQyafMTdznZnEDQRAA9AqjbewdErq5e4vkSd7kHoAD/hN8Awlt5sgcFE3aSewt6pzRGZpgjuTp6Tuey2RDNtxPRQ8Yo+ZRJ31/gQckSZ+dp9F1RxEgtPyWjdiQr4a+eQ67JkMK6bvaL2B39DuufCmAFTGeWTA/mi9dZwFlGlytDiJMuEwsbXkumUDg3H6mHqCm+Sz6r0TCY9tQBzdFTsVwypVk+VMGTlIn66pp4Qx4l1IiHN0BEFcHzvjrjzj/snyWpuIkWGiwVdzqoqOa6ifvK8nnorZvEmSLqHzC0wuhoOq4qaTF1m27JdktEEmSihgwdEJSEtmV3TxDoVqSXYUwirRrk5Wga3TChw3lhx01W/trQbWJ1B2XLcdzSJOvpCJKNpPZuqDPs7coH1W2NaLA3QFXF1C2KbR69ltxLRJueqc5JJOKEtjI1GgFDljfkgjJBg2tfvup3PAgRoJ9VT/AJ9orQXUcIiNVwSBaUFUxg1vC5e/NBn0/JPimTyQa6tBMCy5rYjKIGpUArZWgzN4Q2LrEmQRBClwSQOSCcHjMwuNPyRBe3U7bJThojLO5/FaYTJB6z7JpOKI5WE1q4dcLllaG2tdLW4rKcml9t127Gy0giI36rOMF2TdsLfiJMz6JF4tFQ0TlAJPWPaN5XVXFH22Rr8IarIa/SLEGF0/Ext5ExHlbcfWp8rnGdNQD6ZagP0AVs8O4h1cf778jQMoaSATFtLOi6KxvgsPbzZcx3yH8zZCcN4RicGCGw9gOYiM50NmjabdN17EnFmyTQo8UvFOrlpNa2m3QH73WP2+ap1aq7zA98mHSGtj2zHTtAvdXbieMfiJD2Eu7sgCBfcyf5sq7jMCLZYLpk3mTI0HYWnuhNA4kPh9jC91R7MjACIvEa5QNyeuytmP8UFuHyUmNpyQGiBGRoEuA93D2CFw+GzC7Y1mHECTv+CGxHBXV3AMOZ8QLEtYLbneP1QnbFxpFWrPrVaroDosHWtv8Q95j9EZQ4XUDssEzvltB2kuEemq9F8J+F20AcxJO8He8k2nr0RbOENDnQwhv3ZNj/blGnqn9iQLE2Uijwd0wDp1mO+URB9B+6Lo4B2aDmzNH32n/rTE2/uKvdDgVMcxcC6Zl14m2to9FLj+G0Q3nqZdwZYG/wDcH6K4ZLFKFHkWPc0OMAyN3mZ9ALD0ug8O+ZNp7KweLsOzzMweSDuXuOUbWDIVdba4cD9FszJHXCcSaOKa89f5K9+8OYxtanqDa6+bsU6XTHuva/8ATnEzh2zE9SsJrdmsHqi18QwDQw5eUiTb9F5C7HOo4vMDmBdBIHXaF7FxOsGtLpFhJE3aOoG4XjnijGU3uNRrgCdQBeR+StJSi4smR6Nh6rjDuv09UVVqCDB1CqXhjjrqjGtLhMAH0VprUwWz1Oi+fyYZY20JM5AlgjULKxkX/wAqfNydDAEKMvbZsXlc7VBZzhmkX2XLqhGylcQDIIg/JC1seAYKTFV+QguYAYOmt5Mrqg8wTIEaDtCjq8PEDK65BzO6RaPop8PgW5nQcxhvoJGvvCFF22O3Z1hMSQ2ToZ9lzia7jlgct7qciOVw0taO1z81twykcs/hfSytJvQOzKVWBAFt/UKaq8azG3e6iqFoiLmSexBEn5EELjE4oZc/eCPeLLZPimhOyM4eX6yJO+vRcUnACC6CZ9LLdF5O8gEwRt/xMei54w7Zl3TmEWIa7Kf1+SVpq0TVbN1qnwh1nSCRt1P5LtjwBmEGAZHedkJjxmzEZi8ZTGwi/wA7QocS5xpzaeU23zG4P83QnTdFqFugimHHlDeY2Heb2XdeuQC3LcCD7HQoHh2LcyqMwnK32bG31CLqUHMbme0FromLkE90cbWmV9ddEYw83GpG23WV2xoLQHEWNzt6LTWta6TU6CLXJG/6IXFVTl7b6XJcNBqLfipUaRPFrYVisM0AuIsbAa+6ZcMYHfdgm3rG8IDiTJIAvIAG0cs+i74VjIOvNAnNMfsurC1HINrY3xFAj/MJPWwsuzeYbaiSAfUdEy4liTB3ETbT56Ksu4jSzGPlm37XhdmWVM68atBeIoMyunKIElx2mZce1ilvBvD9N3mVPiDxy2gQOijxuKEBtyJm5MR/JR2H4o3ymMByl7pB0blDm2nqQ4R6J42mKaoE+zUqIlwzy6RY/T5H5IZ+LIa7IBzbA3I09PkgKnGg+q+m1shgY13cNdDt+rj+60MXTc4OjIR8LZIgT16foqkqJix9gnVBTGdwpzEukEnaB3/XstsxYDjDqjxoNMt9g1o2g6pTjcU5zYJmbG82jbooaDDT5i8j3P5LBytm9FlZW+81hIG1ozdQXa/NJPFHFazWcgBIN3DJmb6sIJPqCknFeLVTZtduYycrddbAfL6lUziGOqmWjNFxJO3TadfS66cMfJzZZeBtjMXUrsmo8nKex+QiQgqWHB3IUXBZILYiURjqRpZg8EFrnNIOktMG47hdiejmFOOABgFes/6Y4kCn5boAjfuvHXVc7x6q/eH+J5aLmEXbeTpc2H0WT7LR6Nx/GDynAOFmnKY09+nZeH8bZDy4zzQR3lXvB1alYlpDsh2nXsT+S3jfDDXMcG0Wg6h03zdCeix+5RdM1ljbVlJ4NjXNcBJiRPtsvWOHcVcCDU+ECIIvmNgCNt1ScB4eb9lryCKrcz2yOdwpZM2X/iMzh3Luyb+G67qtIPzc925jcECMubqYMA9lj8njNX6MU6ZcsLiWuzZrj7uxnrHRcYaqPMvBEEGYt3HdBVyTTEESYHLqSYsCom4EsddxuLGZMgTB9V5MlVMUl6HFUf1CwJuN/RCVsZRBgt03tcdVxUrVHMy8xHMDbXKNfl+CGfQZDXEnmaHWaXa90VbtCvQ6xVRpABMS3m6zBkyNrLVHAfEWuIi4udBlsf6hH4oVtbKxs2BDmzrDmmM09CCB7qYGWmCNDvZgkAW1FovGylVf8lsjyFOGYNAuWwIFjbKTPXaV3h6jeVxMSNCebSCNIsQENTeJAdzZoe03Blwmx9tO3dS1odcQYLgReb7ke5Kq6dmsbZ01w8wW+GRO93A+m6HxFI03GGgsmdN4FuxOvsi24h2V8CCQ3eMzgIN+7Wj5qKm8uGwbBm17tkR11Cckq/ZVJgTdMrCWmQSdgBofnb/5XDy+Qbl2UDNsdh9Siq1DMXNh122JJMaS0nUg6z1gqBxdytAtAi14ImB1sR9VFUiWjpuEc9ji3NLjJG+kOi9/TZceUGgB94MSLg7t/AX6KbD4kZTl0LzuZAy7+pH1Q+KqAsBzSJDwdnTrMxpI91qv8bH0rRFVOd8AQ4C5nXSxHaUXh+Iw3y3B0kjXSxgkfIodtEtALyI3LQTZwEE9byp3PFuRpiACR0vExPePVSlUrEm29kGPbScXvDC1wBMAyTYRA0MGUuqsfYnM+dQG6Bokm28EaSmbWNY457HW/wB6A4kCdoAnTRSVK0taSGmJh15ykOdAG5LY9Lqqb2xqHsDo4x7Gi4GUwc0/EdC07jdE0MPXrQ8gsvfbMRYHS8xMwjeG4BrqkvBmm7NlmYMQ2dtOnRMmVZc5pJlrvo7mb+Mey6MUaSbOjHH2A4nhjKlMU3vcY7ke1tVWuJeHGUgXMJAF56fNXKpS3k++igexrhBkfh6raVs6IpI85xlVzRzD999FXMRxp1KJEy9rmjWBoY+Q0XqHE+FseHG1wfqfyXmPGfDlQ1XhsuAlzW3zRP3P6o3GtxZaYV7M8z1ojrMq03+az4Xhri4fekix6k5hfqVxTGWoAbyQeZ2VsRcTObtqFvhzn0qT2VCfLDC+m4TImtTECbSHC4791xj6xL/MbTD2kACBYBok5hG38JXUqaOSy5YM5tAANIBET2unFbhoLcr4M9J9hKG8I8NqZW1KoDZ+FjQAI2NvwKuLMOBHL7rkdXo7I3Wyg4ngliAxom8xfU3GXf17JLxDw2GNzgBo6Buu8Akz69yvR8fTJ0B6zIn0ugfsBcJk76tsNJIcfxC2x5GZZILs8kyZXX5STBmYH95KK8TYWpUAqvzyRTzgDMWCC2o8tnq0O/8Aq6e8f8OONRokNY53NrOt/eI7BH8NwwDCX5Zc7N8JuzMJbOsAC2kWO6rNn4LRxydFZ4F4IxL2VA1gLSGuZUkAOi7TlPM2xcNNyNpVr4X/AKb1y2K1djJIJDAXEx/yMQrWPEADQwjLlIDY1DToQ5s201t1lcjGuNSS6Blym/eJAGtjr21XPL5MY+bKjOK7GOD4LRw9PK0A2Ek3Jn8EJUPxCxA0m5GsB3X1Q1XiTszmyJIA6EwdegFzfutMfBJAt3N4Iyl3/X6riyfItriaSz+iWrgW+Yw5QCx21wWObdp9Q4z6Jbwrw+2mHtaY5xyj7wBkQZ0j+aJvQxctM6b9CTYAnpt7jVRYxzgCQQ3WDqZtcRvfRL7dfoy7D8PSZeANSQCIgtAF9/vSh8TRGaS2wLDAuQdbrWABa3LmvJMC5AtBMjWAZ9VxiHZZZcggkmJblDgC3XcFv1Uyprfgt7J6jjyuMguiQLjlMEX37d0I4vYAxtNxDREgyDBPQ+3sjmvmnYyCQT6Gxnqua74PxbXtNwSNh2VKTW0SuwIt+6DJBJhpBgGA4G2sF3yHZcGsGQJ+MENmxyx2vssWKJwWmGJXv9m6PMwMiMg5L6l0XvF7yPdE1ntBzi39V+sySD1uI1hYsUtKv74LhthVTEtzBpBktMctotEEaiQNNPRaw1NwBE3EOA7x8NtIlbWLRK5O/wC6Qo7Vg2OrluUvMA63tbX0sD891FUokhrhYgOzSRGUCbjb91pYp4Jt2NbWyQUSWGIOUEz9Wx2MG/UTEqLCYVxaGFtwYAifgdcujWc0dOVYsWkY3T/vYk2yetRIZlygGOUaHWXC3ptrHZEUMGC57Y5XA/1aiBIOkwev3fVYsWsMa5UUuqIK75cWOG+o1IkmI2kEA+6hrNDqjS7LLS5hFuUGwIte9trrFizl2V+jrg2Id5j2kQSBNo0kg+4I16dEwpYkCqSLFzR6cjoMjoWvHyWLFUZNR/2aLoY/a2xoJJ0I0gX/AA+qnfz0yA1ot6D6BYsXZibbaY5dWJMRhRTb/vOF9MoOUdAJ19fVJuM8LpFgd5kQZbB5sxiAOgsJ7LFi0aSsSbdFexvDXVGw5gcHObnLRYkkQSM2vKJiPu2RvAOAMa34RlvLTJzO9TfLYW0sOqxYuSUmhwgudFwwtKRP8+SKi1xYfktrFUejebIHBrjNvne6CxwiIJvNrk2s4flZYsV2Y5OhFjHicpDd7HYGZ0O2tuk9FryWElwaSAwNv8Ii8xaLjY9dFixcMpO2cMzKFElvXKOWcp/tAIMaG4H9W8KSlhpE5C14uSHREXGlhoRBWLFmsa0xqCbO7NGgc55OQOtB1LjOwMqUUwWgEkk2zE5gZtYx3BWLFHv9f+Gfsn8mC5rTDcpn1cCTprH5qJ7xADrmAJv21+l+qxYpfZS7DcKwhxIjWI9Q0Aehi6lIIOU/A7Yglu5t3vr2W1i1gtFojxJOWoBt8Ig20sI1iVxRq5mghoghsbatBP1lYsRK0tESP//Z;" vertex="1" parent="2">
                    <mxGeometry x="24" y="170" width="300" height="168" as="geometry"/>
                </mxCell>
                <mxCell id="4" value="Random dog image generator, API" style="rounded=0;whiteSpace=wrap;html=1;" vertex="1" parent="1">
                    <mxGeometry x="90" y="140" width="600" height="30" as="geometry"/>
                </mxCell>
            </root>
        </mxGraphModel>
    </diagram>
</mxfile>